<?xml version="1.0" encoding="UTF-8"?>
<!DOCTYPE svg PUBLIC "-//W3C//DTD SVG 1.1//EN" "http://www.w3.org/Graphics/SVG/1.1/DTD/svg11.dtd">
<svg xmlns="http://www.w3.org/2000/svg" version="1.1" width="16px" height="16px" style="shape-rendering:geometricPrecision; text-rendering:geometricPrecision; image-rendering:optimizeQuality; fill-rule:evenodd; clip-rule:evenodd" xmlns:xlink="http://www.w3.org/1999/xlink">
<g><path style="opacity:0.174" fill="#040404" d="M -0.5,0.5 C 4.83333,0.5 10.1667,0.5 15.5,0.5C 15.5,3.16667 15.5,5.83333 15.5,8.5C 14.5318,6.39263 14.1984,4.0593 14.5,1.5C 9.83333,1.5 5.16667,1.5 0.5,1.5C 0.801552,4.0593 0.468218,6.39263 -0.5,8.5C -0.5,5.83333 -0.5,3.16667 -0.5,0.5 Z"/></g>
<g><path style="opacity:1" fill="#373737" d="M 15.5,8.5 C 15.5,8.83333 15.5,9.16667 15.5,9.5C 10.1667,9.5 4.83333,9.5 -0.5,9.5C -0.5,9.16667 -0.5,8.83333 -0.5,8.5C 0.468218,6.39263 0.801552,4.0593 0.5,1.5C 5.16667,1.5 9.83333,1.5 14.5,1.5C 14.1984,4.0593 14.5318,6.39263 15.5,8.5 Z"/></g>
<g><path style="opacity:1" fill="#8d3bcc" d="M 9.5,6.5 C 8.79105,7.40397 7.79105,7.73731 6.5,7.5C 5.76589,6.29208 5.43255,4.95875 5.5,3.5C 6.83333,3.5 8.16667,3.5 9.5,3.5C 9.5,4.5 9.5,5.5 9.5,6.5 Z"/></g>
<g><path style="opacity:1" fill="#454048" d="M 9.5,6.5 C 9.5,5.5 9.5,4.5 9.5,3.5C 8.16667,3.5 6.83333,3.5 5.5,3.5C 5.43255,4.95875 5.76589,6.29208 6.5,7.5C 4.83333,7.5 3.16667,7.5 1.5,7.5C 1.5,5.83333 1.5,4.16667 1.5,2.5C 5.55461,2.17575 9.55461,2.50909 13.5,3.5C 11.993,4.38865 10.6597,5.38865 9.5,6.5 Z"/></g>
<g><path style="opacity:0.318" fill="#cecece" d="M -0.5,9.5 C 4.83333,9.5 10.1667,9.5 15.5,9.5C 15.5,10.1667 15.5,10.8333 15.5,11.5C 13.5,11.5 11.5,11.5 9.5,11.5C 8.16667,11.5 6.83333,11.5 5.5,11.5C 3.5,11.5 1.5,11.5 -0.5,11.5C -0.5,10.8333 -0.5,10.1667 -0.5,9.5 Z"/></g>
<g><path style="opacity:0.885" fill="#999999" d="M 5.5,11.5 C 6.83333,11.5 8.16667,11.5 9.5,11.5C 10.9053,13.4526 10.2386,14.4526 7.5,14.5C 4.76136,14.4526 4.09469,13.4526 5.5,11.5 Z"/></g>
</svg>
