<?xml version="1.0" standalone="no"?>
<!DOCTYPE svg PUBLIC "-//W3C//DTD SVG 20010904//EN"
 "http://www.w3.org/TR/2001/REC-SVG-20010904/DTD/svg10.dtd">
<svg version="1.0" xmlns="http://www.w3.org/2000/svg"
 width="1628.000000pt" height="1628.000000pt" viewBox="0 0 1628.000000 1628.000000"
 preserveAspectRatio="xMidYMid meet">
<metadata>
Created by potrace 1.14, written by Peter Selinger 2001-2017
</metadata>
<g transform="translate(0.000000,1628.000000) scale(0.100000,-0.100000)"
fill="#000000" stroke="none">
<path d="M803 14318 c-18 -10 -46 -18 -62 -18 -16 0 -34 -7 -41 -15 -7 -8 -20
-15 -30 -15 -9 0 -47 -31 -83 -70 -55 -57 -68 -77 -73 -112 -4 -24 -13 -53
-20 -65 -12 -19 -14 -594 -14 -3743 l0 -3720 7615 0 7615 0 -2 3714 c-3 3521
-4 3715 -20 3733 -10 11 -18 33 -18 49 0 17 -7 39 -15 50 -8 10 -15 26 -15 34
0 22 -98 117 -145 140 -21 11 -51 20 -65 20 -14 0 -35 7 -47 15 -19 13 -841
15 -7285 18 -6900 2 -7264 1 -7295 -15z"/>
<path d="M447 6543 c-4 -3 -7 -329 -7 -723 0 -614 2 -719 15 -736 8 -10 15
-27 15 -36 0 -23 40 -98 51 -98 5 0 9 -6 9 -13 0 -24 103 -98 155 -111 16 -4
33 -13 37 -19 6 -9 718 -13 2963 -15 l2955 -2 0 -700 0 -701 -671 -671 c-759
-759 -704 -688 -583 -749 l69 -34 2637 0 c2096 0 2640 3 2650 13 6 6 19 12 28
12 20 0 99 55 106 74 3 7 -274 291 -660 677 l-665 664 -3 708 -3 707 2953 2
c2173 2 2955 6 2960 14 4 6 22 15 40 19 17 3 32 10 32 15 0 4 10 10 23 14 12
3 37 19 55 37 41 40 112 148 112 171 0 9 5 20 10 23 7 4 10 257 10 725 0 701
0 720 -19 730 -22 11 -15263 15 -15274 3z"/>
</g>
</svg>
